<?xml version="1.0" standalone="no"?>
<!DOCTYPE svg PUBLIC "-//W3C//DTD SVG 20010904//EN"
 "http://www.w3.org/TR/2001/REC-SVG-20010904/DTD/svg10.dtd">
<svg version="1.0" xmlns="http://www.w3.org/2000/svg"
 width="64.000000pt" height="64.000000pt" viewBox="0 0 64.000000 64.000000"
 preserveAspectRatio="xMidYMid meet">

<g transform="translate(0.000000,64.000000) scale(0.100000,-0.100000)"
fill="#000000" stroke="none">
<path d="M306 524 c-3 -9 -6 -77 -6 -152 l0 -136 -38 37 c-21 20 -41 37 -45
37 -20 0 -1 -31 48 -80 l55 -54 55 54 c49 49 68 80 48 80 -4 0 -24 -17 -45
-37 l-38 -37 0 136 c0 133 -4 168 -20 168 -4 0 -11 -7 -14 -16z"/>
<path d="M157 84 c-20 -20 7 -24 164 -24 132 0 170 3 167 13 -4 9 -47 13 -164
15 -88 1 -163 -1 -167 -4z"/>
</g>
</svg>
